<?xml version="1.0" encoding="UTF-8" standalone="no"?>
<svg
   xmlns:dc="http://purl.org/dc/elements/1.1/"
   xmlns:cc="http://creativecommons.org/ns#"
   xmlns:rdf="http://www.w3.org/1999/02/22-rdf-syntax-ns#"
   xmlns:svg="http://www.w3.org/2000/svg"
   xmlns="http://www.w3.org/2000/svg"
   xmlns:sodipodi="http://sodipodi.sourceforge.net/DTD/sodipodi-0.dtd"
   xmlns:inkscape="http://www.inkscape.org/namespaces/inkscape"
   aria-hidden="true"
   focusable="false"
   data-prefix="fas"
   data-icon="thumbtack"
   role="img"
   viewBox="0 0 6.5089998 8.6789999"
   class="svg-inline--fa fa-thumbtack fa-w-12 fa-2x"
   version="1.1"
   id="svg4"
   sodipodi:docname="thumbtack3.svg"
   inkscape:version="0.92.3 (2405546, 2018-03-11)"
   width="6.5089998"
   height="8.6789999">
  <metadata
     id="metadata10">
    <rdf:RDF>
      <cc:Work
         rdf:about="">
        <dc:format>image/svg+xml</dc:format>
        <dc:type
           rdf:resource="http://purl.org/dc/dcmitype/StillImage" />
        <dc:title></dc:title>
      </cc:Work>
    </rdf:RDF>
  </metadata>
  <defs
     id="defs8" />
  <sodipodi:namedview
     pagecolor="#ffffff"
     bordercolor="#666666"
     borderopacity="1"
     objecttolerance="10"
     gridtolerance="10"
     guidetolerance="10"
     inkscape:pageopacity="0"
     inkscape:pageshadow="2"
     inkscape:window-width="1366"
     inkscape:window-height="696"
     id="namedview6"
     showgrid="false"
     inkscape:zoom="29.5"
     inkscape:cx="3.3468629"
     inkscape:cy="5.9458677"
     inkscape:window-x="0"
     inkscape:window-y="0"
     inkscape:window-maximized="1"
     inkscape:current-layer="svg4" />
  <path
     d="M 5.052085,3.63253 4.8446808,1.6277 h 0.7154809 c 0.224695,0 0.4068411,-0.18214 0.4068411,-0.40684 V 0.40718 c 0,-0.2247 -0.1821461,-0.40684 -0.4068411,-0.40684 H 0.9492959 c -0.22469495,0 -0.4068411,0.18214 -0.4068411,0.40684 v 0.81368 c 0,0.2247 0.18214615,0.40684 0.4068411,0.40684 H 1.6647768 L 1.4573726,3.63253 C 0.63509591,4.01484 0,4.70039 0,5.5605 0,5.7852 0.18214615,5.96734 0.4068411,5.96734 H 2.712274 v 1.7631 c 0,0.0211 0.0049,0.0418 0.014324,0.0607 l 0.4068411,0.81368 c 0.049855,0.0997 0.1926393,0.0999 0.242596,0 L 3.7828762,7.79114 a 0.13574931,0.13574931 0 0 0 0.014324,-0.0607 V 5.96734 H 6.1026331 C 6.327328,5.96734 6.5094742,5.7852 6.5094742,5.5605 6.5094572,4.69286 5.8655973,4.01077 5.052085,3.63253 Z"
     class=""
     id="path2"
     style="fill:#ffffff;stroke-width:0.01695171"
     inkscape:connector-curvature="0" />
  <path
     style="fill:#ffffff;stroke-width:0.0367766"
     d="M 2.9607995,8.20944 2.7398565,7.76869 V 6.86709 5.9655 L 1.5905878,5.9653 C 0.89740008,5.96518 0.38583027,5.9497 0.30149389,5.9263 -0.03904596,5.8317 -0.07079512,5.3051 0.22975199,4.73628 0.37024122,4.47039 0.90045048,3.95577 1.2165884,3.77846 l 0.2602819,-0.14598 0.08325,-0.8286 C 1.6059083,2.34815 1.6524173,1.89667 1.6634754,1.80059 L 1.6835804,1.6259 H 1.3095106 C 0.9003678,1.6259 0.72847211,1.5783 0.63000858,1.43772 0.54400788,1.31494 0.54194298,0.32165 0.62743458,0.19959 0.7644847,0.00392 0.71230358,0.00773 3.2547287,0.00773 c 2.5424253,0 2.4902442,-0.004 2.6272944,0.19186 0.085492,0.12206 0.083426,1.11535 -0.00257,1.23813 C 5.7809901,1.5783 5.6090939,1.6259 5.1999515,1.6259 H 4.8258773 l 0.020105,0.17469 c 0.011058,0.0961 0.057659,0.54705 0.1035584,1.00217 l 0.083453,0.82747 0.3084429,0.18224 c 0.3520145,0.20799 0.7781997,0.62838 0.9369566,0.92423 0.3020829,0.56294 0.2705886,1.09491 -0.07043,1.1896 -0.084337,0.0234 -0.5959063,0.0389 -1.289094,0.039 l -1.1492687,2e-4 v 0.90159 0.9016 L 3.5486575,8.20944 C 3.3777822,8.55032 3.311175,8.65019 3.2547282,8.65019 c -0.056447,0 -0.123054,-0.0999 -0.2939287,-0.44075 z"
     id="path3715"
     inkscape:connector-curvature="0" />
  <path
     style="fill:#ffffff;stroke-width:0.00650125"
     d="m 5.9000161,5.95429 c 0.1760742,-0.007 0.2799036,-0.0177 0.3281472,-0.0326 0.050548,-0.0156 0.11149,-0.0555 0.1466652,-0.0959 0.033116,-0.0381 0.079726,-0.13336 0.093952,-0.19204 C 6.5366585,5.35379 6.4146355,4.90404 6.1836703,4.58289 6.0129225,4.34548 5.7148593,4.05867 5.4546807,3.88143 5.4189237,3.85703 5.3288712,3.80123 5.2545635,3.7573 5.1181409,3.6767 5.0850001,3.65178 5.1728355,3.6959 5.4337573,3.82693 5.6842994,4.00514 5.889423,4.20561 c 0.3378302,0.33018 0.5359022,0.69584 0.5987923,1.10543 0.016305,0.10619 0.020266,0.28569 0.0075,0.33965 -0.030244,0.12779 -0.1238295,0.2358 -0.2478784,0.2861 l -0.05201,0.0211 -0.2112906,8.6e-4 c -0.2010844,8.3e-4 -0.2051667,6.2e-4 -0.084516,-0.004 z"
     id="path3717"
     inkscape:connector-curvature="0" />
  <path
     style="fill:#ffffff;stroke-width:0.00229854"
     d="m 3.4647451,8.37553 c 0.00231,-0.003 0.072231,-0.1413 0.1553786,-0.30628 l 0.1511779,-0.29996 3.39e-5,-0.66025 3.39e-5,-0.66026 h 0.012669 0.012669 L 3.7961056,7.10214 3.7955038,7.7555 3.7902538,7.77 C 3.7873638,7.778 3.7178058,7.91892 3.6356753,8.08318 L 3.4863472,8.38182 h -0.012904 -0.012905 z"
     id="path3719"
     inkscape:connector-curvature="0" />
  <path
     style="fill:#ffffff;stroke-width:0.00229854"
     d="m 3.2204718,8.67394 c -0.00907,-0.002 -0.019932,-0.006 -0.024134,-0.008 -0.016831,-0.009 -0.036477,-0.0247 -0.046763,-0.0383 C 3.1349338,8.60824 2.7222611,7.78237 2.717437,7.76286 2.714527,7.75106 2.714047,7.69686 2.714047,7.37498 V 7.0008 h 0.012642 0.012642 v 0.38502 0.38501 l 0.068701,0.13733 c 0.2561646,0.51206 0.3144526,0.62032 0.3736005,0.69391 0.035083,0.0436 0.065864,0.0577 0.095971,0.044 0.037581,-0.0172 0.085596,-0.0831 0.159538,-0.21889 l 0.024461,-0.0449 h 0.012401 0.012401 L 3.4264755,8.502 3.3665465,8.62171 3.3500245,8.63831 c -0.026618,0.0267 -0.051848,0.0378 -0.090075,0.0395 -0.018096,8.4e-4 -0.026494,1.1e-4 -0.03948,-0.003 z"
     id="path3721"
     inkscape:connector-curvature="0" />
</svg>
